<svg width="25" height="31" viewBox="0 0 25 31" fill="none" xmlns="http://www.w3.org/2000/svg">
<path d="M12.3142 8C12.9982 8 11.9988 8 12.3142 8V8Z" fill="black"/>
<path d="M12.3142 8C11.6302 8 12.6296 8 12.3142 8V8Z" fill="black"/>
<path d="M0.814209 19V30H12.3142M0.814209 19V8H12.3142M0.814209 19H12.3142M23.8142 19V8H12.3142M23.8142 19V30H12.3142M23.8142 19H12.3142M12.3142 8C13.3142 3.5 16.5592 -0.499994 19 2.00001C21.4722 4.53215 15.1895 7.84411 12.3142 8ZM12.3142 8C11.9988 8 12.9982 8 12.3142 8ZM12.3142 8V19M12.3142 8C11.3142 3.5 8.06926 -0.499994 5.62842 2.00001C3.15619 4.53215 9.43892 7.84411 12.3142 8ZM12.3142 8C12.6296 8 11.6302 8 12.3142 8ZM12.3142 30V19" stroke="black" stroke-linecap="square"/>
</svg>
