<svg width="11" height="24" viewBox="0 0 11 24" fill="none" xmlns="http://www.w3.org/2000/svg">
<path d="M8.38268 15.6C8.38268 17.4945 8.12077 19.3324 7.64518 20.7751C7.59084 20.9399 7.686 21.1158 7.85768 21.168C7.89045 21.1779 7.92355 21.1826 7.95617 21.1826C8.09455 21.1826 8.22302 21.0974 8.26696 20.964C8.76218 19.4618 9.03488 17.5568 9.03488 15.5999C9.03488 13.2599 8.66233 11.0874 7.98586 9.48259C7.91823 9.32228 7.72799 9.24489 7.56125 9.30981C7.3943 9.37473 7.31369 9.55721 7.38126 9.71743C8.01769 11.2273 8.38268 13.3714 8.38268 15.6Z" fill="black"/>
<path d="M3.0438 21.1826C3.07636 21.1826 3.10952 21.178 3.14228 21.1679C3.31396 21.1158 3.40913 20.9399 3.35473 20.7751C2.8792 19.3323 2.61728 17.4945 2.61728 15.6C2.61728 13.3714 2.98227 11.2273 3.61869 9.71748C3.68627 9.55721 3.60566 9.37468 3.43872 9.30985C3.27172 9.24493 3.08164 9.32237 3.01411 9.48264C2.33765 11.0874 1.96509 13.26 1.96509 15.6C1.96509 17.5569 2.23779 19.4619 2.73301 20.9641C2.77695 21.0974 2.90537 21.1826 3.0438 21.1826Z" fill="black"/>
<path d="M6.22447 15.6C6.22447 17.5154 6.13756 19.3754 5.9798 20.8373C5.96124 21.0092 6.09142 21.1631 6.27057 21.1809C6.28194 21.182 6.29327 21.1826 6.30455 21.1826C6.46954 21.1826 6.61114 21.0628 6.62852 20.9019C6.78853 19.4192 6.87666 17.5363 6.87666 15.6001C6.87666 13.2859 6.75645 11.1405 6.53819 9.55899C6.51456 9.38762 6.35079 9.26701 6.17213 9.28979C5.99362 9.31248 5.86808 9.46984 5.89171 9.64121C6.10319 11.1738 6.22447 13.3457 6.22447 15.6Z" fill="black"/>
<path d="M4.69542 21.1826C4.70665 21.1826 4.71802 21.1821 4.7294 21.1809C4.90855 21.1631 5.03868 21.0093 5.02017 20.8373C4.86241 19.3753 4.77549 17.5154 4.77549 15.6C4.77549 13.3457 4.89678 11.1738 5.10831 9.64117C5.13194 9.46979 5.0064 9.31248 4.82789 9.28975C4.64898 9.26743 4.48546 9.38762 4.46183 9.55895C4.24357 11.1404 4.12335 13.2859 4.12335 15.6C4.12335 17.5362 4.21149 19.4191 4.37149 20.9018C4.38883 21.0628 4.53043 21.1826 4.69542 21.1826Z" fill="black"/>
<path d="M10.0883 21.9123H9.18751C10.3236 20.3135 10.9891 18.0088 10.9891 15.5993C10.9891 12.3587 9.83532 9.44667 7.97809 7.99974C7.91999 7.95446 7.84743 7.92975 7.77263 7.92975H7.46144L8.48068 3.7224C8.52145 3.55398 8.41232 3.3858 8.23693 3.34661C8.06159 3.30766 7.8863 3.41223 7.84548 3.58061L6.79192 7.92975H6.23801L6.96608 0.341085C6.98259 0.168913 6.85066 0.0165232 6.67131 0.000632643C6.49148 -0.0155861 6.33323 0.111492 6.31667 0.283616L5.58308 7.92966H5.33704V3.4428C5.33704 3.26992 5.19099 3.12977 5.01096 3.12977C4.83088 3.12977 4.68489 3.26997 4.68489 3.4428V7.92975H4.65623L3.92249 0.28371C3.90598 0.111539 3.74754 -0.0152111 3.56785 0.000726393C3.3885 0.0165701 3.25647 0.169007 3.27308 0.341179L4.00115 7.92985H3.46775L2.49627 4.9156C2.443 4.75042 2.26033 4.65798 2.08841 4.70912C1.91634 4.76021 1.82005 4.93557 1.87332 5.10067L2.85218 8.13783C1.09461 9.62667 0.0109253 12.4586 0.0109253 15.5993C0.0109253 18.0089 0.676402 20.3136 1.81243 21.9123H0.911656C0.731578 21.9123 0.585582 22.0525 0.585582 22.2254C0.585582 23.2035 1.41449 23.9993 2.43338 23.9993H8.56662C9.58551 23.9993 10.4144 23.2035 10.4144 22.2254C10.4144 22.0525 10.2684 21.9123 10.0883 21.9123ZM0.663072 15.5993C0.663072 12.6414 1.71268 9.89423 3.34529 8.55581H7.65471C9.28737 9.89423 10.337 12.6414 10.337 15.5993C10.337 18.0753 9.60768 20.4208 8.38005 21.9123H2.61995C1.39237 20.4208 0.663072 18.0753 0.663072 15.5993ZM8.56657 23.3732H2.43333C1.88704 23.3732 1.42513 23.0196 1.2829 22.5384H9.71705C9.57477 23.0196 9.11286 23.3732 8.56657 23.3732Z" fill="black"/>
</svg>
